HIERARCHY
ROOT Hips
{
	OFFSET 0.000000 0.000000 0.000000
	CHANNELS 6 Xposition Yposition Zposition Zrotation Yrotation Xrotation 
	JOINT LHipJoint
	{
		OFFSET 0.000000 0.000000 0.000000
		CHANNELS 3 Zrotation Yrotation Xrotation
		JOINT LeftUpLeg
		{
			OFFSET 1.363060 -1.794630 0.839290
			CHANNELS 3 Zrotation Yrotation Xrotation
			JOINT LeftLeg
			{
				OFFSET 2.448110 -6.726130 0.000000
				CHANNELS 3 Zrotation Yrotation Xrotation
				JOINT LeftFoot
				{
					OFFSET 2.562200 -7.039590 0.000000
					CHANNELS 3 Zrotation Yrotation Xrotation
					JOINT LeftToeBase
					{
						OFFSET 0.157640 -0.433110 2.322550
						CHANNELS 3 Zrotation Yrotation Xrotation
						End Site
						{
							OFFSET 0.000000 0.000000 0.000000
						}
					}
				}
			}
		}
	}
	JOINT RHipJoint
	{
		OFFSET 0.000000 0.000000 0.000000
		CHANNELS 3 Zrotation Yrotation Xrotation
		JOINT RightUpLeg
		{
			OFFSET -1.305520 -1.794630 0.839290
			CHANNELS 3 Zrotation Yrotation Xrotation
			JOINT RightLeg
			{
				OFFSET -2.542530 -6.985550 0.000000
				CHANNELS 3 Zrotation Yrotation Xrotation
				JOINT RightFoot
				{
					OFFSET -2.568260 -7.056230 0.000000
					CHANNELS 3 Zrotation Yrotation Xrotation
					JOINT RightToeBase
					{
						OFFSET -0.164730 -0.452590 2.363150
						CHANNELS 3 Zrotation Yrotation Xrotation
						End Site
						{
							OFFSET 0.000000 0.000000 0.000000
						}
					}
				}
			}
		}
	}
}
MOTION
Frames: 19
Frame Time: 0.008333
8.508242 15.922270 1.787537 69.065703 -85.945622 -33.912819 -10.220368 1.964345 3.403456 -10.072058 -1.699039 -41.306652 -1.329962 1.317293 46.374376 2.872786 12.912672 -17.593569 -2.217100 0.000000 -71.997200 10.704925 -1.062049 2.676959 4.584778 -2.298656 -39.706139 1.251735 -2.222855 47.030320 -2.457258 -6.927761 -21.099128 1.713100 0.000000 -79.478600
8.303981 16.215358 1.775452 64.841571 -85.951055 -31.885814 -10.397354 2.294974 3.073232 -9.598032 -0.029890 -37.066895 -1.239120 1.154112 42.662005 2.403854 12.380678 -11.559223 -0.729100 -0.000000 -76.182400 10.812485 -1.417032 2.067865 4.766366 -4.380114 -35.024868 1.272616 -1.988985 42.686576 -1.860431 -5.926694 -14.911074 0.671500 0.000000 -84.320400
8.098595 16.508270 1.764953 60.121788 -85.965359 -29.233185 -10.585790 2.609724 2.793876 -8.942991 1.514735 -33.178678 -1.088406 1.045672 39.115691 2.034128 11.982348 -5.010863 0.697600 0.000000 -79.629500 10.921552 -1.772295 1.487892 4.842972 -6.520353 -30.729632 1.231773 -1.818868 38.497723 -1.339629 -4.990526 -8.007174 -0.188300 -0.000000 -88.768100
7.892256 16.798241 1.755444 55.259457 -85.990568 -26.250222 -10.775938 2.898565 2.582246 -8.158100 2.858380 -29.709385 -0.899502 0.978511 35.792627 1.790035 11.684811 1.845193 2.009899 -0.000000 -81.967400 11.029333 -2.113166 0.965277 4.816677 -8.622387 -26.925305 1.146928 -1.707202 34.570088 -0.939922 -4.089375 -0.592279 -0.786800 -0.000000 -92.360500
7.685285 17.082877 1.746299 50.622410 -86.030282 -23.257204 -10.956678 3.149682 2.452646 -7.310725 3.924826 -26.704950 -0.696139 0.932140 32.742115 1.679314 11.449561 8.737307 3.159601 -0.000000 -82.924500 11.131216 -2.420851 0.525030 4.705117 -10.580031 -23.692565 1.041004 -1.637278 31.004341 -0.689234 -3.178672 7.028932 -1.060700 -0.000000 -94.685799
7.477861 17.360053 1.736941 46.538984 -86.088963 -20.543961 -11.117633 3.353252 2.414522 -6.474531 4.649456 -24.190519 -0.498775 0.885816 30.006355 1.686765 11.246429 15.354518 4.116200 0.000000 -82.458299 11.221796 -2.677296 0.186074 4.539817 -12.292638 -21.082705 0.936915 -1.586229 27.887180 -0.587462 -2.221365 14.471791 -0.986000 -0.000000 -95.543700
7.270379 17.628081 1.726974 43.222421 -86.171004 -18.303064 -11.250739 3.504548 2.469695 -5.713530 4.990885 -22.177558 -0.320479 0.826632 27.628126 1.777233 11.056604 21.382908 4.871400 0.000000 -80.637000 11.295637 -2.870829 -0.041478 4.363993 -13.677234 -19.119546 0.851673 -1.534836 25.290332 -0.604626 -1.218440 21.314558 -0.600400 -0.000000 -94.823200
7.063404 17.885740 1.716199 40.758262 -86.280351 -16.618701 -11.351467 3.606171 2.610900 -5.070536 4.943503 -20.662745 -0.165907 0.752777 25.643185 1.907597 10.877299 26.561889 5.438500 -0.000001 -77.788800 11.349068 -3.000730 -0.158656 4.221022 -14.687132 -17.795034 0.792591 -1.474949 23.252606 -0.691957 -0.228685 27.188772 -0.013100 0.000000 -92.760700
6.857559 18.132266 1.704519 39.175534 -86.417196 -15.536375 -11.418002 3.666324 2.824345 -4.564942 4.526898 -19.620355 -0.033031 0.670571 24.062429 2.041089 10.729054 30.731118 5.853400 -0.000000 -74.456800 11.381643 -3.075238 -0.176423 4.139534 -15.312509 -17.068058 0.757001 -1.409851 21.765112 -0.801879 0.633735 31.856277 0.613500 -0.000000 -89.874300
6.653630 18.366954 1.692084 38.388121 -86.579917 -14.996860 -11.452198 3.693941 3.090597 -4.190954 3.797184 -19.029301 0.081456 0.590943 22.901364 2.151453 10.615840 33.806197 6.140700 -0.000000 -71.039700 11.394260 -3.107320 -0.110611 4.136748 -15.571417 -16.879854 0.737043 -1.349034 20.786426 -0.900644 1.240674 35.217291 1.110200 -0.000001 -86.685200
6.452340 18.589219 1.678931 38.353166 -86.760563 -14.990586 -11.457107 3.696738 3.388928 -3.932562 2.824317 -18.852160 0.180424 0.522672 22.146116 2.226236 10.547212 35.797197 6.328000 -0.000000 -67.951000 11.390565 -3.108360 0.020414 4.206259 -15.503877 -17.150197 0.724365 -1.300852 20.238196 -0.972026 1.497165 37.303180 1.352000 -0.000000 -83.723800
6.254612 18.798522 1.665167 39.013362 -86.947463 -15.499072 -11.436905 3.679025 3.698350 -3.768524 1.691116 -19.046035 0.264628 0.470844 21.762597 2.262689 10.525687 36.782804 6.436200 -0.000000 -65.435600 11.374856 -3.085605 0.197337 4.328074 -15.165582 -17.790341 0.714306 -1.269403 20.026218 -1.011686 1.376624 38.223116 1.291700 0.000000 -81.309800
6.061171 18.994470 1.650905 40.260877 -87.126388 -16.453531 -11.396927 3.642751 3.999137 -3.675918 0.492044 -19.565862 0.332486 0.436804 21.700427 2.263351 10.537664 36.888622 6.473700 0.000000 -63.584700 11.350956 -3.043421 0.401266 4.478934 -14.627454 -18.710598 0.707661 -1.253991 20.049593 -1.021342 0.925217 38.130027 0.960401 0.000000 -79.540099
5.873100 19.176747 1.636318 41.987649 -87.283286 -17.793276 -11.342110 3.588444 4.268085 -3.641893 -0.670852 -20.352479 0.379786 0.420621 21.899254 2.231751 10.546882 36.253778 6.430800 0.000000 -62.080800 11.322625 -2.981799 0.608149 4.629970 -13.980692 -19.818634 0.710107 -1.251707 20.217647 -1.004396 0.254526 37.187400 0.453600 0.000000 -78.269700
5.690757 19.345539 1.621764 43.901194 -87.408101 -19.259413 -11.278647 3.515248 4.493872 -3.651173 -1.725250 -21.347752 0.405591 0.417416 22.261122 2.178615 10.553958 35.105007 6.332000 -0.000000 -61.160400 11.290193 -2.902032 0.802180 4.773339 -13.303216 -21.036423 0.729062 -1.255177 20.422586 -0.968593 -0.531917 35.614932 -0.133100 0.000001 -77.479100
5.514758 19.501655 1.607612 45.705425 -87.494743 -20.594713 -11.211803 3.423528 4.663307 -3.700859 -2.603234 -22.489116 0.407699 0.424148 22.699776 2.111141 10.533474 33.637772 6.181200 -0.000000 -60.544000 11.253486 -2.803895 0.964859 4.905022 -12.679889 -22.296261 0.772654 -1.258493 20.585139 -0.920026 -1.318691 33.617160 -0.701400 -0.000000 -76.894200
5.345236 19.645491 1.594211 47.120257 -87.542946 -21.545582 -11.146089 3.314556 4.770465 -3.791547 -3.268711 -23.715279 0.386640 0.436789 23.119971 2.038145 10.485398 32.063433 6.002700 0.000000 -60.213900 11.211468 -2.688089 1.083726 5.032308 -12.173878 -23.546303 0.845985 -1.255450 20.630231 -0.866456 -2.034627 31.418418 -1.194600 -0.000001 -76.471000
5.182027 19.778225 1.581834 47.934851 -87.556756 -21.920029 -11.085006 3.191143 4.814463 -3.926314 -3.705990 -24.975603 0.344054 0.452141 23.440082 1.966210 10.412812 30.560066 5.819800 0.000000 -60.114201 11.162976 -2.556940 1.151361 5.170720 -11.829259 -24.754596 0.951216 -1.242026 20.507844 -0.813235 -2.637292 29.214882 -1.586401 0.000000 -76.136200
5.024634 19.900522 1.570678 48.056771 -87.543175 -21.635097 -11.030920 3.057545 4.798487 -4.109417 -3.914449 -26.232420 0.281617 0.468014 23.600172 1.898300 10.315345 29.247432 5.647400 -0.000000 -60.068000 11.107299 -2.414490 1.165721 5.339252 -11.669422 -25.907195 1.088083 -1.216575 20.194820 -0.762227 -3.106149 27.153455 -1.873200 -0.000001 -75.774700
